<svg width="64" height="64" viewBox="0 0 64 64" fill="none" xmlns="http://www.w3.org/2000/svg">
<path d="M30.9738 8.50452L34.2799 4.14438C34.4831 3.87291 34.6311 3.56384 34.7156 3.23481C34.8001 2.90577 34.8193 2.56323 34.7721 2.22672C34.725 1.89022 34.6125 1.56634 34.4409 1.2736C34.2694 0.980852 34.0422 0.724964 33.7724 0.520544C33.5026 0.316124 33.1954 0.167176 32.8683 0.082203C32.5413 -0.00276974 32.2008 -0.0221028 31.8663 0.025308C31.5319 0.0727189 31.2099 0.185945 30.919 0.358522C30.628 0.531098 30.3737 0.759645 30.1705 1.03111L26.2712 6.17171C26.4539 6.22939 26.6308 6.30131 26.8 6.3889L30.9738 8.50452ZM33.3569 9.71294C33.7533 9.91583 34.1056 10.1958 34.3936 10.5368C34.6815 10.8777 34.8993 11.2727 35.0344 11.699C35.1406 12.0301 35.1951 12.369 35.1993 12.7073L40.0987 6.19948C40.509 5.65122 40.6861 4.96142 40.5909 4.28182C40.4957 3.60222 40.1361 2.98849 39.5912 2.57564C39.0462 2.1628 38.3606 1.98466 37.6851 2.08041C37.0096 2.17616 36.3996 2.53796 35.9892 3.08621L31.6497 8.84917L33.3569 9.71294ZM39.846 7.79599L34.5128 14.8208C34.225 15.2049 34.0493 15.662 34.0055 16.141C33.9617 16.62 34.0514 17.1017 34.2647 17.5322C34.478 17.9627 34.8063 18.3248 35.2128 18.5779C35.6194 18.8311 36.088 18.9652 36.5661 18.9652C37.3468 18.9652 38.1175 18.6091 38.6229 17.934L43.9554 10.91C44.3659 10.3617 44.543 9.67187 44.4479 8.9922C44.3528 8.31254 43.9932 7.69872 43.4483 7.28578C42.9033 6.87284 42.2177 6.6946 41.5421 6.79029C40.8665 6.88597 40.2564 7.24773 39.846 7.79599Z" fill="url(#paint0_linear_1759_50)"/>
<path d="M44.2903 24.2461C44.8622 22.97 45.0392 21.4974 45.076 20.3744L44.7667 20.791C44.4642 21.1984 44.0711 21.5288 43.6187 21.7557C43.1663 21.9825 42.6674 22.0994 42.162 22.097C41.455 22.0987 40.7671 21.867 40.2035 21.4376C39.8428 21.1651 39.5425 20.82 39.3218 20.4242C39.1011 20.0284 38.9648 19.5907 38.9217 19.1389C38.2564 19.3312 37.5465 19.5726 36.799 19.8795C36.0265 20.1949 35.2804 20.5724 34.5681 21.0082L34.4952 20.9818C34.4952 20.9818 34.4952 19.0791 30.4296 16.166C28.973 15.122 25.473 13.7178 25.473 13.7178L25.8594 12.765L30.5818 15.1591C31.2186 15.4876 31.9591 15.5481 32.6403 15.3274C33.3215 15.1066 33.8877 14.6227 34.2142 13.982C34.5407 13.3413 34.6009 12.5963 34.3815 11.911C34.1621 11.2256 33.681 10.656 33.0442 10.3275L25.8212 6.67947C25.4355 6.48041 25.0083 6.37667 24.5748 6.37683C23.5902 6.37683 22.6397 6.9109 22.1881 7.85727C21.8441 8.57933 19.6464 13.0662 19.4645 14.9832C19.415 15.5044 19.5778 16.5683 19.766 17.0568C20.6812 19.4416 24.802 24.9325 26.2933 26.8787L17 46.5225H27.9269L18.756 64L44.3951 38.6994H33.7287L41.0883 29.3959C42.1181 28.1868 43.2782 26.5048 44.2903 24.2461Z" fill="url(#paint1_linear_1759_50)"/>
<path d="M46.7265 12.718C46.2814 12.3797 45.7386 12.1969 45.1807 12.1975C44.4 12.1975 43.6299 12.5535 43.1246 13.2293L40.1094 17.2626C39.7204 17.8122 39.56 18.4929 39.6624 19.1597C39.7648 19.8265 40.1219 20.4268 40.6576 20.8327C41.1933 21.2386 41.8654 21.418 42.5307 21.3328C43.196 21.2476 43.8019 20.9045 44.2195 20.3765L47.234 16.3425C47.6444 15.7942 47.8215 15.1043 47.7263 14.4245C47.6311 13.7448 47.2715 13.131 46.7265 12.718Z" fill="url(#paint2_linear_1759_50)"/>
<defs>
<linearGradient id="paint0_linear_1759_50" x1="22.0684" y1="12.026" x2="39.35" y2="50.4943" gradientUnits="userSpaceOnUse">
<stop stop-color="#EA1F59"/>
<stop offset="0.0001" stop-color="#EA1F59"/>
<stop offset="1" stop-color="#FA9169"/>
</linearGradient>
<linearGradient id="paint1_linear_1759_50" x1="10.9872" y1="13.8633" x2="38.7847" y2="47.4322" gradientUnits="userSpaceOnUse">
<stop stop-color="#EA1F59"/>
<stop offset="1" stop-color="#FA9169"/>
</linearGradient>
<linearGradient id="paint2_linear_1759_50" x1="29.0539" y1="28.7615" x2="45.4247" y2="36.8092" gradientUnits="userSpaceOnUse">
<stop stop-color="#EA1F59"/>
<stop offset="1" stop-color="#FA9169"/>
</linearGradient>
</defs>
</svg>
