<svg width="64" height="64" viewBox="0 0 64 64" fill="none" xmlns="http://www.w3.org/2000/svg">
<g clip-path="url(#clip0_1910_33)">
<path d="M35.5 32C35.5 32.9917 35.15 33.8083 34.45 34.45C33.8083 35.15 32.9917 35.5 32 35.5C31.0083 35.5 30.1625 35.15 29.4625 34.45C28.8208 33.8083 28.5 32.9917 28.5 32C28.5 31.0083 28.8208 30.1625 29.4625 29.4625C30.1625 28.8208 31.0083 28.5 32 28.5C32.9917 28.5 33.8083 28.8208 34.45 29.4625C35.15 30.1625 35.5 31.0083 35.5 32Z" fill="url(#paint0_linear_1910_33)"/>
<path d="M35.5 32C35.5 32.9917 35.15 33.8083 34.45 34.45C33.8083 35.15 32.9917 35.5 32 35.5C31.0083 35.5 30.1625 35.15 29.4625 34.45C28.8208 33.8083 28.5 32.9917 28.5 32C28.5 31.0083 28.8208 30.1625 29.4625 29.4625C30.1625 28.8208 31.0083 28.5 32 28.5C32.9917 28.5 33.8083 28.8208 34.45 29.4625C35.15 30.1625 35.5 31.0083 35.5 32Z" fill="url(#paint1_linear_1910_33)"/>
<path d="M3 32L9.21428 25.7857L11.2857 27.8571L7.14286 32L11.2857 36.1429L9.21428 38.2143L3 32ZM61 32L54.7857 38.2143L52.7143 36.1429L56.8571 32L52.7143 27.8571L54.7857 25.7857L61 32ZM32 3L38.2143 9.21428L36.1429 11.2857L32 7.14286L27.8571 11.2857L25.7857 9.21428L32 3ZM32 61L25.7857 54.7857L27.8571 52.7143L32 56.8571L36.1429 52.7143L38.2143 54.7857L32 61Z" fill="url(#paint2_linear_1910_33)"/>
<path d="M3 32L9.21428 25.7857L11.2857 27.8571L7.14286 32L11.2857 36.1429L9.21428 38.2143L3 32ZM61 32L54.7857 38.2143L52.7143 36.1429L56.8571 32L52.7143 27.8571L54.7857 25.7857L61 32ZM32 3L38.2143 9.21428L36.1429 11.2857L32 7.14286L27.8571 11.2857L25.7857 9.21428L32 3ZM32 61L25.7857 54.7857L27.8571 52.7143L32 56.8571L36.1429 52.7143L38.2143 54.7857L32 61Z" fill="url(#paint3_linear_1910_33)"/>
<path d="M35.5 32C35.5 32.9917 35.15 33.8083 34.45 34.45C33.8083 35.15 32.9917 35.5 32 35.5C31.0083 35.5 30.1625 35.15 29.4625 34.45C28.8208 33.8083 28.5 32.9917 28.5 32C28.5 31.0083 28.8208 30.1625 29.4625 29.4625C30.1625 28.8208 31.0083 28.5 32 28.5C32.9917 28.5 33.8083 28.8208 34.45 29.4625C35.15 30.1625 35.5 31.0083 35.5 32ZM3 32L9.21428 25.7857L11.2857 27.8571L7.14286 32L11.2857 36.1429L9.21428 38.2143L3 32ZM61 32L54.7857 38.2143L52.7143 36.1429L56.8571 32L52.7143 27.8571L54.7857 25.7857L61 32ZM32 3L38.2143 9.21428L36.1429 11.2857L32 7.14286L27.8571 11.2857L25.7857 9.21428L32 3ZM32 61L25.7857 54.7857L27.8571 52.7143L32 56.8571L36.1429 52.7143L38.2143 54.7857L32 61Z" stroke="url(#paint4_linear_1910_33)" stroke-width="4"/>
</g>
<defs>
<linearGradient id="paint0_linear_1910_33" x1="32" y1="3" x2="32" y2="44.6545" gradientUnits="userSpaceOnUse">
<stop stop-color="#EA1F59"/>
<stop offset="1" stop-color="#FA9169"/>
</linearGradient>
<linearGradient id="paint1_linear_1910_33" x1="32" y1="3" x2="32" y2="44.6545" gradientUnits="userSpaceOnUse">
<stop stop-color="#EA1F59"/>
<stop offset="1" stop-color="#FA9169"/>
</linearGradient>
<linearGradient id="paint2_linear_1910_33" x1="32" y1="3" x2="32" y2="44.6545" gradientUnits="userSpaceOnUse">
<stop stop-color="#EA1F59"/>
<stop offset="1" stop-color="#FA9169"/>
</linearGradient>
<linearGradient id="paint3_linear_1910_33" x1="32" y1="3" x2="32" y2="44.6545" gradientUnits="userSpaceOnUse">
<stop stop-color="#EA1F59"/>
<stop offset="1" stop-color="#FA9169"/>
</linearGradient>
<linearGradient id="paint4_linear_1910_33" x1="32" y1="3" x2="32" y2="44.6545" gradientUnits="userSpaceOnUse">
<stop stop-color="#EA1F59"/>
<stop offset="1" stop-color="#FA9169"/>
</linearGradient>
<clipPath id="clip0_1910_33">
<rect width="64" height="64" fill="white"/>
</clipPath>
</defs>
</svg>
