<svg width="256" height="64" viewBox="0 0 256 64" fill="none" xmlns="http://www.w3.org/2000/svg">
<g clip-path="url(#clip0_2162_9)">
<path d="M20.6194 45.6837C21.5153 45.2616 22.3627 44.7648 23.1616 44.1937V44.144H23.21C23.21 44.1192 23.21 44.1192 23.2343 44.1192C23.5005 43.8708 23.5489 43.4238 23.2585 43.1506L20.7163 40.0463C20.5226 39.7731 20.111 39.6986 19.8447 39.8725C19.8447 39.8973 19.8205 39.8973 19.8205 39.8973C15.9467 42.5794 10.6202 41.8841 7.5454 38.1589C4.22846 34.1358 4.68855 28.1258 8.58652 24.7235C11.6855 22.0415 16.0194 21.7683 19.3121 23.7303C19.5783 23.8792 19.8447 23.8543 20.0384 23.6806L23.2343 20.9239C23.5005 20.6755 23.5489 20.2286 23.2585 19.9057L23.21 19.856L23.089 19.7815C17.7868 15.8826 10.354 16.0316 5.17272 20.5514C-1.00107 25.8908 -1.75161 35.3775 3.47793 41.6854C7.78755 46.9006 14.8329 48.3162 20.6194 45.6837ZM38.7294 47C30.6913 47 24.1543 40.2947 24.1543 32.0497C24.1543 23.8048 30.6913 17.0995 38.7294 17.0995C46.7675 17.0995 53.3045 23.8048 53.3045 32.0497C53.3045 40.2947 46.7675 47 38.7294 47ZM38.7294 22.5133C33.5966 22.5133 29.4323 26.8097 29.4323 32.0497C29.4323 37.2897 33.5966 41.5364 38.7294 41.5364C43.8379 41.5364 47.978 37.2897 47.978 32.0497C47.978 26.8097 43.8379 22.5133 38.7294 22.5133ZM57.0327 17.1243L68.1214 28.4984L79.1855 17.1243V46.3045C79.1855 46.6771 78.9202 47 78.557 47H74.6581C74.2717 47 73.9806 46.6771 73.9806 46.3045V30.0381L68.1214 36.048L62.2389 30.0381V46.3045C62.2389 46.6771 61.9723 47 61.6091 47H57.6626C57.3238 47 57.0327 46.6771 57.0327 46.3045V17.1243ZM102.38 32.0497C104.221 30.3858 105.116 28.1507 105.116 25.9405C105.116 23.5564 104.075 21.2717 102.21 19.6326C100.274 17.9687 97.6353 17.0995 94.5608 17.0995H84.6095C84.2462 17.0995 83.932 17.4223 83.932 17.8197V20.6507L89.5967 29.3428H83.932V46.2797C83.932 46.6523 84.2462 47 84.6095 47H94.5608C101.508 47 105.116 42.5546 105.116 38.1589C105.116 35.8493 104.148 33.6391 102.38 32.0497ZM91.5339 22.5133H94.5608C98.1673 22.5133 99.8378 24.3014 99.8378 25.9405C99.8378 27.356 98.5794 28.846 95.9158 29.2434L91.5339 22.5133ZM89.2335 41.5364V34.7566H94.5608C98.1673 34.7566 99.8378 36.5447 99.8378 38.1589C99.8378 39.798 98.1673 41.5364 94.5608 41.5364H89.2335ZM127.536 35.4271C127.536 35.0298 127.221 34.7566 126.858 34.7566H124.607L120.49 17.77L120.442 17.5961C120.345 17.3477 120.102 17.174 119.837 17.174H115.406C115.115 17.174 114.898 17.3477 114.776 17.5961L114.752 17.7948L107.876 45.9818C107.876 46.0314 107.876 46.0563 107.827 46.0563V46.2053C107.827 46.6274 108.143 46.9255 108.482 46.9255H112.574C112.864 46.9255 113.13 46.7268 113.202 46.4536C113.202 46.4039 113.227 46.379 113.227 46.379L114.727 40.1457H120.515L122.015 46.3294L122.04 46.4536C122.136 46.7268 122.378 46.9255 122.645 46.9255H126.762C127.125 46.9255 127.39 46.6274 127.39 46.2053V46.1308L127.366 45.9569L125.937 40.1457H126.858C127.221 40.1457 127.536 39.8725 127.536 39.5V35.4271ZM116.036 34.7566L117.633 28.3245L119.183 34.7566H116.036ZM147.897 21.818C147.897 22.2153 147.534 22.5133 147.098 22.5133H140.609V46.1308C140.609 46.5777 140.319 46.9752 139.981 46.9752H135.961C135.622 46.9752 135.332 46.5777 135.332 46.1308V22.5133H128.722C128.334 22.5133 128.044 22.2153 128.044 21.818V17.77C128.044 17.3726 128.334 17.0995 128.722 17.0995H147.098C147.534 17.0995 147.897 17.3726 147.897 17.77V21.818ZM151.457 17.1243L162.546 28.4984L173.634 17.1243V46.3045C173.634 46.6771 173.368 47 172.98 47H169.082C168.719 47 168.404 46.6771 168.404 46.3045V30.0381L162.546 36.048L156.686 30.0381V46.3045C156.686 46.6771 156.42 47 156.032 47H152.11C151.771 47 151.457 46.6771 151.457 46.3045V17.1243ZM191.937 47C183.9 47 177.362 40.2947 177.362 32.0497C177.362 23.8048 183.9 17.0995 191.937 17.0995C199.976 17.0995 206.513 23.8048 206.513 32.0497C206.513 40.2947 199.976 47 191.937 47ZM191.937 22.5133C186.804 22.5133 182.64 26.8097 182.64 32.0497C182.64 37.2897 186.804 41.5364 191.937 41.5364C197.046 41.5364 201.187 37.2897 201.187 32.0497C201.187 26.8097 197.046 22.5133 191.937 22.5133ZM217.819 46.9752C221.112 47 224.405 45.8824 227.116 43.5977C233.289 38.3824 234.21 28.9454 229.078 22.5878C226.244 19.0116 222.032 17.1243 217.819 17.1243H210.58C210.192 17.1243 209.901 17.4471 209.901 17.7948V46.1308C209.901 46.6274 210.192 46.9752 210.58 46.9752H217.819ZM225.01 26.0398C228.278 30.063 227.697 36.0729 223.727 39.3758C222.032 40.841 219.925 41.5861 217.819 41.5364H215.18V22.563H217.819C220.507 22.563 223.194 23.7303 225.01 26.0398ZM256 46.3045C256 46.6771 255.686 47 255.346 47H236.801C236.437 47 236.123 46.6771 236.123 46.3045V17.7948C236.123 17.4223 236.437 17.0995 236.801 17.0995H254.668C255.056 17.0995 255.346 17.4223 255.346 17.7948V21.8676C255.346 22.2401 255.056 22.5133 254.668 22.5133H241.425V29.3428H253.991C254.378 29.3428 254.668 29.616 254.668 29.9884V34.0613C254.668 34.4587 254.378 34.7566 253.991 34.7566H241.425V41.5364H255.346C255.686 41.5364 256 41.8593 256 42.2317V46.3045Z" fill="white"/>
<g clip-path="url(#clip1_2162_9)">
<path d="M20.6194 45.6837C21.5153 45.2616 22.3627 44.7648 23.1616 44.1937V44.144H23.21C23.21 44.1192 23.21 44.1192 23.2343 44.1192C23.5005 43.8708 23.5489 43.4238 23.2585 43.1506L20.7163 40.0463C20.5226 39.7731 20.111 39.6986 19.8447 39.8725C19.8447 39.8973 19.8205 39.8973 19.8205 39.8973C15.9467 42.5794 10.6202 41.8841 7.5454 38.1589C4.22846 34.1358 4.68855 28.1258 8.58652 24.7235C11.6855 22.0415 16.0194 21.7683 19.3121 23.7303C19.5783 23.8792 19.8447 23.8543 20.0384 23.6806L23.2343 20.9239C23.5005 20.6755 23.5489 20.2286 23.2585 19.9057L23.21 19.856L23.089 19.7815C17.7868 15.8826 10.354 16.0316 5.17272 20.5514C-1.00107 25.8908 -1.75161 35.3775 3.47793 41.6854C7.78755 46.9006 14.8329 48.3162 20.6194 45.6837ZM38.7294 47C30.6913 47 24.1543 40.2947 24.1543 32.0497C24.1543 23.8048 30.6913 17.0995 38.7294 17.0995C46.7675 17.0995 53.3045 23.8048 53.3045 32.0497C53.3045 40.2947 46.7675 47 38.7294 47ZM38.7294 22.5133C33.5966 22.5133 29.4323 26.8097 29.4323 32.0497C29.4323 37.2897 33.5966 41.5364 38.7294 41.5364C43.8379 41.5364 47.978 37.2897 47.978 32.0497C47.978 26.8097 43.8379 22.5133 38.7294 22.5133ZM57.0327 17.1243L68.1214 28.4984L79.1855 17.1243V46.3045C79.1855 46.6771 78.9202 47 78.557 47H74.6581C74.2717 47 73.9806 46.6771 73.9806 46.3045V30.0381L68.1214 36.048L62.2389 30.0381V46.3045C62.2389 46.6771 61.9723 47 61.6091 47H57.6626C57.3238 47 57.0327 46.6771 57.0327 46.3045V17.1243ZM102.38 32.0497C104.221 30.3858 105.116 28.1507 105.116 25.9405C105.116 23.5564 104.075 21.2717 102.21 19.6326C100.274 17.9687 97.6353 17.0995 94.5608 17.0995H84.6095C84.2462 17.0995 83.932 17.4223 83.932 17.8197V20.6507L89.5967 29.3428H83.932V46.2797C83.932 46.6523 84.2462 47 84.6095 47H94.5608C101.508 47 105.116 42.5546 105.116 38.1589C105.116 35.8493 104.148 33.6391 102.38 32.0497ZM91.5339 22.5133H94.5608C98.1673 22.5133 99.8378 24.3014 99.8378 25.9405C99.8378 27.356 98.5794 28.846 95.9158 29.2434L91.5339 22.5133ZM89.2335 41.5364V34.7566H94.5608C98.1673 34.7566 99.8378 36.5447 99.8378 38.1589C99.8378 39.798 98.1673 41.5364 94.5608 41.5364H89.2335ZM127.536 35.4271C127.536 35.0298 127.221 34.7566 126.858 34.7566H124.607L120.49 17.77L120.442 17.5961C120.345 17.3477 120.102 17.174 119.837 17.174H115.406C115.115 17.174 114.898 17.3477 114.776 17.5961L114.752 17.7948L107.876 45.9818C107.876 46.0314 107.876 46.0563 107.827 46.0563V46.2053C107.827 46.6274 108.143 46.9255 108.482 46.9255H112.574C112.864 46.9255 113.13 46.7268 113.202 46.4536C113.202 46.4039 113.227 46.379 113.227 46.379L114.727 40.1457H120.515L122.015 46.3294L122.04 46.4536C122.136 46.7268 122.378 46.9255 122.645 46.9255H126.762C127.125 46.9255 127.39 46.6274 127.39 46.2053V46.1308L127.366 45.9569L125.937 40.1457H126.858C127.221 40.1457 127.536 39.8725 127.536 39.5V35.4271ZM116.036 34.7566L117.633 28.3245L119.183 34.7566H116.036ZM147.897 21.818C147.897 22.2153 147.534 22.5133 147.098 22.5133H140.609V46.1308C140.609 46.5777 140.319 46.9752 139.981 46.9752H135.961C135.622 46.9752 135.332 46.5777 135.332 46.1308V22.5133H128.722C128.334 22.5133 128.044 22.2153 128.044 21.818V17.77C128.044 17.3726 128.334 17.0995 128.722 17.0995H147.098C147.534 17.0995 147.897 17.3726 147.897 17.77V21.818ZM151.457 17.1243L162.546 28.4984L173.634 17.1243V46.3045C173.634 46.6771 173.368 47 172.98 47H169.082C168.719 47 168.404 46.6771 168.404 46.3045V30.0381L162.546 36.048L156.686 30.0381V46.3045C156.686 46.6771 156.42 47 156.032 47H152.11C151.771 47 151.457 46.6771 151.457 46.3045V17.1243ZM191.937 47C183.9 47 177.362 40.2947 177.362 32.0497C177.362 23.8048 183.9 17.0995 191.937 17.0995C199.976 17.0995 206.513 23.8048 206.513 32.0497C206.513 40.2947 199.976 47 191.937 47ZM191.937 22.5133C186.804 22.5133 182.64 26.8097 182.64 32.0497C182.64 37.2897 186.804 41.5364 191.937 41.5364C197.046 41.5364 201.187 37.2897 201.187 32.0497C201.187 26.8097 197.046 22.5133 191.937 22.5133ZM217.819 46.9752C221.112 47 224.405 45.8824 227.116 43.5977C233.289 38.3824 234.21 28.9454 229.078 22.5878C226.244 19.0116 222.032 17.1243 217.819 17.1243H210.58C210.192 17.1243 209.901 17.4471 209.901 17.7948V46.1308C209.901 46.6274 210.192 46.9752 210.58 46.9752H217.819ZM225.01 26.0398C228.278 30.063 227.697 36.0729 223.727 39.3758C222.032 40.841 219.925 41.586 217.819 41.5364H215.18V22.563H217.819C220.507 22.563 223.194 23.7303 225.01 26.0398ZM256 46.3045C256 46.6771 255.686 47 255.346 47H236.801C236.437 47 236.123 46.6771 236.123 46.3045V17.7948C236.123 17.4223 236.437 17.0995 236.801 17.0995H254.668C255.056 17.0995 255.346 17.4223 255.346 17.7948V21.8676C255.346 22.2401 255.056 22.5133 254.668 22.5133H241.425V29.3428H253.991C254.378 29.3428 254.668 29.616 254.668 29.9884V34.0613C254.668 34.4587 254.378 34.7566 253.991 34.7566H241.425V41.5364H255.346C255.686 41.5364 256 41.8593 256 42.2317V46.3045Z" fill="url(#paint0_linear_2162_9)"/>
</g>
</g>
<defs>
<linearGradient id="paint0_linear_2162_9" x1="128" y1="17" x2="128" y2="47" gradientUnits="userSpaceOnUse">
<stop stop-color="#6C73FF"/>
<stop offset="1" stop-color="#9100FF"/>
</linearGradient>
<clipPath id="clip0_2162_9">
<rect width="256" height="64" fill="white"/>
</clipPath>
<clipPath id="clip1_2162_9">
<rect width="106" height="64" fill="white" transform="translate(150)"/>
</clipPath>
</defs>
</svg>
