<svg width="256" height="64" viewBox="0 0 256 64" fill="none" xmlns="http://www.w3.org/2000/svg">
<path d="M28.7759 31C28.7759 31.7865 28.4983 32.4342 27.9431 32.9431C27.4342 33.4983 26.7865 33.7759 26 33.7759C25.2135 33.7759 24.5427 33.4983 23.9875 32.9431C23.4786 32.4342 23.2241 31.7865 23.2241 31C23.2241 30.2135 23.4786 29.5427 23.9875 28.9875C24.5427 28.4786 25.2135 28.2241 26 28.2241C26.7865 28.2241 27.4342 28.4786 27.9431 28.9875C28.4983 29.5427 28.7759 30.2135 28.7759 31Z" fill="url(#paint0_linear_1910_8)"/>
<path d="M28.7759 31C28.7759 31.7865 28.4983 32.4342 27.9431 32.9431C27.4342 33.4983 26.7865 33.7759 26 33.7759C25.2135 33.7759 24.5427 33.4983 23.9875 32.9431C23.4786 32.4342 23.2241 31.7865 23.2241 31C23.2241 30.2135 23.4786 29.5427 23.9875 28.9875C24.5427 28.4786 25.2135 28.2241 26 28.2241C26.7865 28.2241 27.4342 28.4786 27.9431 28.9875C28.4983 29.5427 28.7759 30.2135 28.7759 31Z" fill="url(#paint1_linear_1910_8)"/>
<path d="M3 31L7.92857 26.0714L9.57143 27.7143L6.28571 31L9.57143 34.2857L7.92857 35.9286L3 31ZM49 31L44.0714 35.9286L42.4286 34.2857L45.7143 31L42.4286 27.7143L44.0714 26.0714L49 31ZM26 8L30.9286 12.9286L29.2857 14.5714L26 11.2857L22.7143 14.5714L21.0714 12.9286L26 8ZM26 54L21.0714 49.0714L22.7143 47.4286L26 50.7143L29.2857 47.4286L30.9286 49.0714L26 54Z" fill="url(#paint2_linear_1910_8)"/>
<path d="M3 31L7.92857 26.0714L9.57143 27.7143L6.28571 31L9.57143 34.2857L7.92857 35.9286L3 31ZM49 31L44.0714 35.9286L42.4286 34.2857L45.7143 31L42.4286 27.7143L44.0714 26.0714L49 31ZM26 8L30.9286 12.9286L29.2857 14.5714L26 11.2857L22.7143 14.5714L21.0714 12.9286L26 8ZM26 54L21.0714 49.0714L22.7143 47.4286L26 50.7143L29.2857 47.4286L30.9286 49.0714L26 54Z" fill="url(#paint3_linear_1910_8)"/>
<path d="M28.7759 31C28.7759 31.7865 28.4983 32.4342 27.9431 32.9431C27.4342 33.4983 26.7865 33.7759 26 33.7759C25.2135 33.7759 24.5427 33.4983 23.9875 32.9431C23.4786 32.4342 23.2241 31.7865 23.2241 31C23.2241 30.2135 23.4786 29.5427 23.9875 28.9875C24.5427 28.4786 25.2135 28.2241 26 28.2241C26.7865 28.2241 27.4342 28.4786 27.9431 28.9875C28.4983 29.5427 28.7759 30.2135 28.7759 31ZM3 31L7.92857 26.0714L9.57143 27.7143L6.28571 31L9.57143 34.2857L7.92857 35.9286L3 31ZM49 31L44.0714 35.9286L42.4286 34.2857L45.7143 31L42.4286 27.7143L44.0714 26.0714L49 31ZM26 8L30.9286 12.9286L29.2857 14.5714L26 11.2857L22.7143 14.5714L21.0714 12.9286L26 8ZM26 54L21.0714 49.0714L22.7143 47.4286L26 50.7143L29.2857 47.4286L30.9286 49.0714L26 54Z" stroke="url(#paint4_linear_1910_8)" stroke-width="4"/>
<path d="M73.0085 41.7106C73.704 41.3911 74.3619 41.0151 74.9822 40.5828V40.5452H75.0198C75.0198 40.5264 75.0198 40.5264 75.0386 40.5264C75.2453 40.3384 75.2829 40.0001 75.0574 39.7933L73.0837 37.4437C72.9333 37.2369 72.6138 37.1805 72.407 37.3121C72.407 37.3309 72.3882 37.3309 72.3882 37.3309C69.3807 39.361 65.2453 38.8347 62.8581 36.0151C60.2829 32.97 60.6401 28.4211 63.6664 25.8459C66.0724 23.8159 69.4371 23.6091 71.9935 25.0941C72.2002 25.2068 72.407 25.188 72.5574 25.0565L75.0386 22.97C75.2453 22.782 75.2829 22.4437 75.0574 22.1993L75.0198 22.1617L74.9258 22.1053C70.8093 19.1542 65.0386 19.267 61.016 22.688C56.2228 26.7294 55.6401 33.9099 59.7002 38.6843C63.0461 42.6317 68.516 43.7031 73.0085 41.7106ZM87.0687 42.7069C80.8281 42.7069 75.7529 37.6317 75.7529 31.3911C75.7529 25.1505 80.8281 20.0753 87.0687 20.0753C93.3093 20.0753 98.3845 25.1505 98.3845 31.3911C98.3845 37.6317 93.3093 42.7069 87.0687 42.7069ZM87.0687 24.173C83.0837 24.173 79.8506 27.4249 79.8506 31.3911C79.8506 35.3572 83.0837 38.5715 87.0687 38.5715C91.0348 38.5715 94.2491 35.3572 94.2491 31.3911C94.2491 27.4249 91.0348 24.173 87.0687 24.173ZM101.279 20.0941L109.888 28.7031L118.478 20.0941V42.1805C118.478 42.4625 118.272 42.7069 117.99 42.7069H114.963C114.663 42.7069 114.437 42.4625 114.437 42.1805V29.8685L109.888 34.4174L105.321 29.8685V42.1805C105.321 42.4625 105.114 42.7069 104.832 42.7069H101.768C101.505 42.7069 101.279 42.4625 101.279 42.1805V20.0941ZM136.486 31.3911C137.915 30.1317 138.61 28.4399 138.61 26.767C138.61 24.9625 137.802 23.2332 136.354 21.9926C134.851 20.7332 132.802 20.0753 130.415 20.0753H122.689C122.407 20.0753 122.163 20.3196 122.163 20.6204V22.7632L126.561 29.3422H122.163V42.1617C122.163 42.4437 122.407 42.7069 122.689 42.7069H130.415C135.809 42.7069 138.61 39.3422 138.61 36.0151C138.61 34.267 137.858 32.5941 136.486 31.3911ZM128.065 24.173H130.415C133.215 24.173 134.512 25.5264 134.512 26.767C134.512 27.8384 133.535 28.9662 131.467 29.267L128.065 24.173ZM126.279 38.5715V33.4399H130.415C133.215 33.4399 134.512 34.7933 134.512 36.0151C134.512 37.2557 133.215 38.5715 130.415 38.5715H126.279ZM156.016 33.9474C156.016 33.6467 155.772 33.4399 155.49 33.4399H153.742L150.546 20.5828L150.509 20.4512C150.433 20.2632 150.245 20.1317 150.039 20.1317H146.599C146.373 20.1317 146.204 20.2632 146.11 20.4512L146.091 20.6016L140.753 41.9362C140.753 41.9738 140.753 41.9926 140.715 41.9926V42.1054C140.715 42.4249 140.96 42.6505 141.223 42.6505H144.4C144.625 42.6505 144.832 42.5001 144.888 42.2933C144.888 42.2557 144.907 42.2369 144.907 42.2369L146.072 37.5189H150.565L151.73 42.1993L151.749 42.2933C151.824 42.5001 152.012 42.6505 152.219 42.6505H155.415C155.697 42.6505 155.903 42.4249 155.903 42.1054V42.049L155.884 41.9174L154.775 37.5189H155.49C155.772 37.5189 156.016 37.3121 156.016 37.0302V33.9474ZM147.088 33.4399L148.328 28.5715L149.531 33.4399H147.088ZM171.824 23.6467C171.824 23.9474 171.542 24.173 171.204 24.173H166.166V42.049C166.166 42.3873 165.941 42.6881 165.678 42.6881H162.557C162.294 42.6881 162.069 42.3873 162.069 42.049V24.173H156.937C156.636 24.173 156.411 23.9474 156.411 23.6467V20.5828C156.411 20.282 156.636 20.0753 156.937 20.0753H171.204C171.542 20.0753 171.824 20.282 171.824 20.5828V23.6467ZM174.588 20.0941L183.197 28.7031L191.806 20.0941V42.1805C191.806 42.4625 191.599 42.7069 191.298 42.7069H188.272C187.99 42.7069 187.745 42.4625 187.745 42.1805V29.8685L183.197 34.4174L178.648 29.8685V42.1805C178.648 42.4625 178.441 42.7069 178.14 42.7069H175.095C174.832 42.7069 174.588 42.4625 174.588 42.1805V20.0941ZM206.016 42.7069C199.776 42.7069 194.7 37.6317 194.7 31.3911C194.7 25.1505 199.776 20.0753 206.016 20.0753C212.257 20.0753 217.332 25.1505 217.332 31.3911C217.332 37.6317 212.257 42.7069 206.016 42.7069ZM206.016 24.173C202.031 24.173 198.798 27.4249 198.798 31.3911C198.798 35.3572 202.031 38.5715 206.016 38.5715C209.982 38.5715 213.197 35.3572 213.197 31.3911C213.197 27.4249 209.982 24.173 206.016 24.173ZM226.11 42.6881C228.667 42.7069 231.223 41.861 233.328 40.1317C238.121 36.1843 238.836 29.0414 234.851 24.2294C232.651 21.5226 229.381 20.0941 226.11 20.0941H220.49C220.189 20.0941 219.963 20.3384 219.963 20.6016V42.049C219.963 42.4249 220.189 42.6881 220.49 42.6881H226.11ZM231.693 26.8422C234.23 29.8873 233.779 34.4362 230.697 36.9362C229.381 38.0452 227.745 38.6091 226.11 38.5715H224.061V24.2106H226.11C228.197 24.2106 230.283 25.0941 231.693 26.8422ZM255.753 42.1805C255.753 42.4625 255.509 42.7069 255.245 42.7069H240.847C240.565 42.7069 240.321 42.4625 240.321 42.1805V20.6016C240.321 20.3196 240.565 20.0753 240.847 20.0753H254.719C255.02 20.0753 255.245 20.3196 255.245 20.6016V23.6843C255.245 23.9662 255.02 24.173 254.719 24.173H244.437V29.3422H254.193C254.494 29.3422 254.719 29.549 254.719 29.8309V32.9136C254.719 33.2144 254.494 33.4399 254.193 33.4399H244.437V38.5715H255.245C255.509 38.5715 255.753 38.8159 255.753 39.0978V42.1805Z" fill="white"/>
<defs>
<linearGradient id="paint0_linear_1910_8" x1="26" y1="8" x2="26" y2="41.0364" gradientUnits="userSpaceOnUse">
<stop stop-color="#7694FF"/>
<stop offset="1" stop-color="#C183FF"/>
</linearGradient>
<linearGradient id="paint1_linear_1910_8" x1="26" y1="8" x2="26" y2="41.0364" gradientUnits="userSpaceOnUse">
<stop stop-color="#7694FF"/>
<stop offset="1" stop-color="#C183FF"/>
</linearGradient>
<linearGradient id="paint2_linear_1910_8" x1="26" y1="8" x2="26" y2="41.0364" gradientUnits="userSpaceOnUse">
<stop stop-color="#7694FF"/>
<stop offset="1" stop-color="#C183FF"/>
</linearGradient>
<linearGradient id="paint3_linear_1910_8" x1="26" y1="8" x2="26" y2="41.0364" gradientUnits="userSpaceOnUse">
<stop stop-color="#7694FF"/>
<stop offset="1" stop-color="#C183FF"/>
</linearGradient>
<linearGradient id="paint4_linear_1910_8" x1="26" y1="8" x2="26" y2="41.0364" gradientUnits="userSpaceOnUse">
<stop stop-color="#7694FF"/>
<stop offset="1" stop-color="#C183FF"/>
</linearGradient>
</defs>
</svg>
