<svg width="256" height="64" viewBox="0 0 256 64" fill="none" xmlns="http://www.w3.org/2000/svg">
<g clip-path="url(#clip0_2166_123)">
<path d="M16.3984 20.6562H24.2109L22.2578 28.4688H16.3984C14.7839 28.4688 13.4036 29.0417 12.2578 30.1875C11.112 31.3333 10.5391 32.7135 10.5391 34.3281C10.5391 35.9427 11.112 37.3229 12.2578 38.4688C13.4036 39.6146 14.7839 40.1875 16.3984 40.1875H22.2578L24.2109 48H16.3984C12.6224 48 9.39974 46.6654 6.73047 43.9961C4.0612 41.3268 2.72656 38.1042 2.72656 34.3281C2.72656 30.5521 4.0612 27.3294 6.73047 24.6602C9.39974 21.9909 12.6224 20.6562 16.3984 20.6562ZM35.8516 48C32.0755 48 28.8529 46.6654 26.1836 43.9961C23.5143 41.3268 22.1797 38.1042 22.1797 34.3281C22.1797 30.5521 23.5143 27.3294 26.1836 24.6602C28.8529 21.9909 32.0755 20.6562 35.8516 20.6562C39.6276 20.6562 42.8503 21.9909 45.5195 24.6602C48.1888 27.3294 49.5234 30.5521 49.5234 34.3281C49.5234 38.1042 48.1888 41.3268 45.5195 43.9961C42.8503 46.6654 39.6276 48 35.8516 48ZM35.8516 40.1875C37.4661 40.1875 38.8464 39.6146 39.9922 38.4688C41.138 37.3229 41.7109 35.9427 41.7109 34.3281C41.7109 32.7135 41.138 31.3333 39.9922 30.1875C38.8464 29.0417 37.4661 28.4688 35.8516 28.4688C34.237 28.4688 32.8568 29.0417 31.7109 30.1875C30.5651 31.3333 29.9922 32.7135 29.9922 34.3281C29.9922 35.9427 30.5651 37.3229 31.7109 38.4688C32.8568 39.6146 34.237 40.1875 35.8516 40.1875ZM60.8711 20.6562L66.7305 34.3281L72.5898 20.6562H82.3555V48H74.543V34.9727L66.7305 51.9062L58.918 35.0312V48H51.1055V22.6094L49.1523 20.6562H60.8711ZM98.918 40.1875C100.22 40.1875 100.871 39.5365 100.871 38.2344C100.871 36.9323 100.22 36.2812 98.918 36.2812H93.0586V40.1875H98.918ZM96.9648 30.4219C98.2669 30.4219 98.918 29.9336 98.918 28.957C98.918 27.9805 98.2669 27.4922 96.9648 27.4922H93.0586V30.4219H96.9648ZM96.9648 20.6562C100.871 20.6562 103.638 21.9583 105.266 24.5625C106.008 25.7474 106.379 26.9323 106.379 28.1172C106.379 29.5365 105.845 30.9557 104.777 32.375C107.382 33.6771 108.684 35.6302 108.684 38.2344C108.684 44.7448 105.428 48 98.918 48H85.2461V22.6094L83.293 20.6562H96.9648ZM123.078 20.6562L132.844 48H125.031L124.387 46.0469H115.188L118.156 38.2344H121.77L119.172 30.4219L112.297 48L101.789 55.8125L114.738 22.0039L113.391 20.6562H123.078ZM127.277 20.6562H146.809V28.4688H140.949V55.8125L133.137 48V28.4688H129.23L127.277 30.4219V20.6562ZM158.605 20.6562L164.465 34.3281L170.324 20.6562H180.09V48H172.277V34.9727L164.465 51.9062L156.652 35.0312V48H148.84V22.6094L146.887 20.6562H158.605ZM195.305 48C191.529 48 188.306 46.6654 185.637 43.9961C182.967 41.3268 181.633 38.1042 181.633 34.3281C181.633 30.5521 182.967 27.3294 185.637 24.6602C188.306 21.9909 191.529 20.6562 195.305 20.6562C199.081 20.6562 202.303 21.9909 204.973 24.6602C207.642 27.3294 208.977 30.5521 208.977 34.3281C208.977 38.1042 207.642 41.3268 204.973 43.9961C202.303 46.6654 199.081 48 195.305 48ZM195.305 40.1875C196.919 40.1875 198.299 39.6146 199.445 38.4688C200.591 37.3229 201.164 35.9427 201.164 34.3281C201.164 32.7135 200.591 31.3333 199.445 30.1875C198.299 29.0417 196.919 28.4688 195.305 28.4688C193.69 28.4688 192.31 29.0417 191.164 30.1875C190.018 31.3333 189.445 32.7135 189.445 34.3281C189.445 35.9427 190.018 37.3229 191.164 38.4688C192.31 39.6146 193.69 40.1875 195.305 40.1875ZM218.371 40.1875H220.324C221.939 40.1875 223.319 39.6146 224.465 38.4688C225.611 37.3229 226.184 35.9427 226.184 34.3281C226.184 32.7135 225.611 31.3333 224.465 30.1875C223.319 29.0417 221.939 28.4688 220.324 28.4688H218.371V40.1875ZM220.324 20.6562C224.1 20.6562 227.323 21.9909 229.992 24.6602C232.661 27.3294 233.996 30.5521 233.996 34.3281C233.996 38.1042 232.661 41.3268 229.992 43.9961C227.323 46.6654 224.1 48 220.324 48H210.559V22.6094L208.605 20.6562H220.324ZM253.176 20.6562V28.4688H243.41V32.375H255.129L243.41 38.2344V40.1875H253.176V48H235.598V22.6094L233.645 20.6562H253.176Z" fill="url(#paint0_linear_2166_123)"/>
</g>
<g clip-path="url(#clip1_2166_123)">
<path d="M20.9128 47.3742C21.7949 46.9714 22.6293 46.4973 23.4161 45.9522V45.9048H23.4637C23.4637 45.8811 23.4637 45.8811 23.4876 45.8811C23.7497 45.6441 23.7974 45.2175 23.5114 44.9568L21.0082 41.9942C20.8175 41.7335 20.4122 41.6624 20.1499 41.8283C20.1499 41.852 20.1261 41.852 20.1261 41.852C16.3117 44.4117 11.0668 43.7481 8.03915 40.193C4.77304 36.3535 5.22607 30.6179 9.06431 27.3709C12.1158 24.8114 16.3832 24.5506 19.6255 26.423C19.8877 26.5651 20.15 26.5414 20.3407 26.3756L23.4876 23.7448C23.7497 23.5077 23.7974 23.0812 23.5114 22.773L23.4637 22.7256L23.3445 22.6545C18.1236 18.9336 10.8047 19.0758 5.70282 23.3892C-0.376358 28.4849 -1.11539 37.5386 4.034 43.5585C8.27759 48.5356 15.215 49.8865 20.9128 47.3742ZM38.7453 48.6305C30.8304 48.6305 24.3935 42.2313 24.3935 34.3627C24.3935 26.4941 30.8304 20.095 38.7453 20.095C46.6602 20.095 53.097 26.4941 53.097 34.3627C53.097 42.2313 46.6602 48.6305 38.7453 48.6305ZM38.7453 25.2616C33.6911 25.2616 29.5906 29.3618 29.5906 34.3627C29.5906 39.3634 33.6911 43.4162 38.7453 43.4162C43.7755 43.4162 47.8521 39.3634 47.8521 34.3627C47.8521 29.3618 43.7755 25.2616 38.7453 25.2616ZM56.7681 20.1187L67.6868 30.9735L78.5815 20.1187V47.9667C78.5815 48.3223 78.3202 48.6305 77.9625 48.6305H74.1234C73.7429 48.6305 73.4563 48.3223 73.4563 47.9667V32.4429L67.6868 38.1785L61.8945 32.4429V47.9667C61.8945 48.3223 61.632 48.6305 61.2743 48.6305H57.3883C57.0547 48.6305 56.7681 48.3223 56.7681 47.9667V20.1187ZM101.421 34.3627C103.233 32.7748 104.115 30.6416 104.115 28.5323C104.115 26.2571 103.09 24.0767 101.253 22.5124C99.3472 20.9245 96.7485 20.095 93.7211 20.095H83.9223C83.5646 20.095 83.2551 20.403 83.2551 20.7823V23.484L88.8331 31.7793H83.2551V47.943C83.2551 48.2986 83.5646 48.6305 83.9223 48.6305H93.7211C100.562 48.6305 104.115 44.388 104.115 40.193C104.115 37.9888 103.161 35.8795 101.421 34.3627ZM90.7406 25.2616H93.7211C97.2723 25.2616 98.9173 26.9681 98.9173 28.5323C98.9173 29.8832 97.6782 31.3052 95.0553 31.6845L90.7406 25.2616ZM88.4754 43.4162V36.946H93.7211C97.2723 36.946 98.9173 38.6524 98.9173 40.193C98.9173 41.7572 97.2723 43.4162 93.7211 43.4162H88.4754ZM126.191 37.5859C126.191 37.2067 125.881 36.946 125.524 36.946H123.307L119.253 20.7348L119.206 20.5689C119.11 20.3319 118.871 20.1661 118.61 20.1661H114.247C113.96 20.1661 113.746 20.3319 113.627 20.5689L113.603 20.7586L106.833 47.6587C106.833 47.7061 106.833 47.7298 106.784 47.7298V47.872C106.784 48.2749 107.095 48.5593 107.429 48.5593H111.458C111.744 48.5593 112.006 48.3697 112.077 48.109C112.077 48.0615 112.101 48.0378 112.101 48.0378L113.579 42.0891H119.277L120.755 47.9904L120.779 48.109C120.874 48.3697 121.112 48.5593 121.375 48.5593H125.428C125.786 48.5593 126.047 48.2749 126.047 47.872V47.8009L126.023 47.635L124.617 42.0891H125.524C125.881 42.0891 126.191 41.8283 126.191 41.4729V37.5859ZM114.867 36.946L116.44 30.8076L117.966 36.946H114.867ZM146.24 24.598C146.24 24.9772 145.882 25.2616 145.453 25.2616H139.064V47.8009C139.064 48.2275 138.778 48.6067 138.445 48.6067H134.487C134.153 48.6067 133.868 48.2275 133.868 47.8009V25.2616H127.359C126.977 25.2616 126.692 24.9772 126.692 24.598V20.7348C126.692 20.3556 126.977 20.095 127.359 20.095H145.453C145.882 20.095 146.24 20.3556 146.24 20.7348V24.598ZM149.745 20.1187L160.664 30.9735L171.583 20.1187V47.9667C171.583 48.3223 171.32 48.6305 170.939 48.6305H167.101C166.743 48.6305 166.432 48.3223 166.432 47.9667V32.4429L160.664 38.1785L154.895 32.4429V47.9667C154.895 48.3223 154.632 48.6305 154.25 48.6305H150.388C150.055 48.6305 149.745 48.3223 149.745 47.9667V20.1187ZM215.09 48.6067C218.333 48.6304 221.575 47.5639 224.245 45.3835C230.324 40.4063 231.231 31.4 226.176 25.3327C223.386 21.9198 219.239 20.1187 215.09 20.1187H207.963C207.581 20.1187 207.294 20.4267 207.294 20.7586V47.8009C207.294 48.2749 207.581 48.6067 207.963 48.6067H215.09ZM222.171 28.6271C225.389 32.4666 224.817 38.2022 220.908 41.3543C219.239 42.7527 217.164 43.4637 215.09 43.4162H212.492V25.309H215.09C217.737 25.309 220.383 26.423 222.171 28.6271ZM252.686 47.9667C252.686 48.3223 252.377 48.6305 252.042 48.6305H233.781C233.424 48.6305 233.114 48.3223 233.114 47.9667V20.7586C233.114 20.403 233.424 20.095 233.781 20.095H251.375C251.757 20.095 252.042 20.403 252.042 20.7586V24.6454C252.042 25.0009 251.757 25.2616 251.375 25.2616H238.334V31.7793H250.708C251.09 31.7793 251.375 32.0401 251.375 32.3955V36.2824C251.375 36.6616 251.09 36.946 250.708 36.946H238.334V43.4162H252.042C252.377 43.4162 252.686 43.7244 252.686 44.0798V47.9667Z" fill="white"/>
</g>
<mask id="mask0_2166_123" style="mask-type:luminance" maskUnits="userSpaceOnUse" x="172" y="17" width="35" height="35">
<path d="M207 17H172V52H207V17Z" fill="white"/>
</mask>
<g mask="url(#mask0_2166_123)">
<path d="M191.349 34.7097C191.349 35.1745 191.185 35.5572 190.857 35.8579C190.556 36.186 190.173 36.35 189.709 36.35C189.244 36.35 188.848 36.186 188.519 35.8579C188.219 35.5572 188.068 35.1745 188.068 34.7097C188.068 34.2449 188.219 33.8485 188.519 33.5204C188.848 33.2197 189.244 33.0693 189.709 33.0693C190.173 33.0693 190.556 33.2197 190.857 33.5204C191.185 33.8485 191.349 34.2449 191.349 34.7097Z" fill="white"/>
<path d="M191.349 34.7097C191.349 35.1745 191.185 35.5572 190.857 35.8579C190.556 36.186 190.173 36.35 189.709 36.35C189.244 36.35 188.848 36.186 188.519 35.8579C188.219 35.5572 188.068 35.1745 188.068 34.7097C188.068 34.2449 188.219 33.8485 188.519 33.5204C188.848 33.2197 189.244 33.0693 189.709 33.0693C190.173 33.0693 190.556 33.2197 190.857 33.5204C191.185 33.8485 191.349 34.2449 191.349 34.7097Z" fill="white"/>
<path d="M176.117 34.7091L179.03 31.7967L180 32.7675L178.059 34.7091L180 36.6508L179.03 37.6216L176.117 34.7091ZM203.3 34.7091L200.388 37.6216L199.417 36.6508L201.358 34.7091L199.417 32.7675L200.388 31.7967L203.3 34.7091ZM189.709 21.1177L192.621 24.0301L191.65 25.0009L189.709 23.0593L187.767 25.0009L186.796 24.0301L189.709 21.1177ZM189.709 48.3006L186.796 45.3881L187.767 44.4173L189.709 46.3589L191.65 44.4173L192.621 45.3881L189.709 48.3006Z" fill="white"/>
<path d="M176.117 34.7091L179.03 31.7967L180 32.7675L178.059 34.7091L180 36.6508L179.03 37.6216L176.117 34.7091ZM203.3 34.7091L200.388 37.6216L199.417 36.6508L201.358 34.7091L199.417 32.7675L200.388 31.7967L203.3 34.7091ZM189.709 21.1177L192.621 24.0301L191.65 25.0009L189.709 23.0593L187.767 25.0009L186.796 24.0301L189.709 21.1177ZM189.709 48.3006L186.796 45.3881L187.767 44.4173L189.709 46.3589L191.65 44.4173L192.621 45.3881L189.709 48.3006Z" fill="white"/>
<path d="M191.349 34.7091C191.349 35.1739 191.185 35.5566 190.857 35.8574C190.556 36.1854 190.173 36.3495 189.709 36.3495C189.244 36.3495 188.847 36.1854 188.519 35.8574C188.219 35.5566 188.068 35.1739 188.068 34.7091C188.068 34.2443 188.219 33.8479 188.519 33.5199C188.847 33.2191 189.244 33.0688 189.709 33.0688C190.173 33.0688 190.556 33.2191 190.857 33.5199C191.185 33.8479 191.349 34.2443 191.349 34.7091ZM176.117 34.7091L179.03 31.7967L180 32.7675L178.059 34.7091L180 36.6508L179.03 37.6216L176.117 34.7091ZM203.3 34.7091L200.388 37.6216L199.417 36.6508L201.358 34.7091L199.417 32.7675L200.388 31.7967L203.3 34.7091ZM189.709 21.1177L192.621 24.0301L191.65 25.0009L189.709 23.0593L187.767 25.0009L186.796 24.0301L189.709 21.1177ZM189.709 48.3006L186.796 45.3881L187.767 44.4173L189.709 46.3589L191.65 44.4173L192.621 45.3881L189.709 48.3006Z" stroke="white" stroke-width="4"/>
</g>
<defs>
<linearGradient id="paint0_linear_2166_123" x1="129" y1="8" x2="129" y2="56" gradientUnits="userSpaceOnUse">
<stop offset="0.264423" stop-color="#6C73FF"/>
<stop offset="1" stop-color="#9100FF"/>
</linearGradient>
<clipPath id="clip0_2166_123">
<rect width="144" height="48" fill="white" transform="translate(3 8)"/>
</clipPath>
<clipPath id="clip1_2166_123">
<rect width="104" height="29" fill="white" transform="translate(149 20)"/>
</clipPath>
</defs>
</svg>
