<svg width="256" height="64" viewBox="0 0 256 64" fill="none" xmlns="http://www.w3.org/2000/svg">
<path d="M0 30.9475V26.7732C0 23.0556 0.29964 20.6764 0.898921 19.6354C1.4982 18.5945 2.78238 17.1818 4.75144 15.3974C6.69911 13.6129 8.1545 12.7207 9.11763 12.7207C10.7657 12.7207 12.6598 13.6554 14.8001 15.5248C16.919 17.4155 18.2674 19.4973 18.8452 21.7704L13.837 25.2118C13.3661 23.5973 12.6063 22.1103 11.5576 20.7507C10.5088 19.4124 9.77042 18.7432 9.34236 18.7432C8.59326 18.7432 7.73715 19.4655 6.77402 20.91C6.38876 21.4836 6.19614 23.438 6.19614 26.7732V30.9475C6.19614 34.3677 6.38876 36.3221 6.77402 36.8107C7.73715 38.2552 8.59326 38.9775 9.34236 38.9775C9.77042 38.9775 10.5088 38.3933 11.5576 37.2249C12.6063 36.0565 13.3661 34.7501 13.837 33.3055L18.8452 36.8107C18.2674 38.85 16.919 40.7301 14.8001 42.4508C12.6598 44.1503 10.7657 45 9.11763 45C8.1545 45 6.69911 44.1078 4.75144 42.3233C2.78238 40.5389 1.4982 39.1262 0.898921 38.0853C0.29964 37.0444 0 34.6651 0 30.9475ZM29.0544 39.2006C29.5253 39.6467 29.8891 39.8697 30.146 39.8697C30.4242 39.8697 30.7988 39.6467 31.2696 39.2006C31.7191 38.7545 32.0508 38.3508 32.2649 37.9897C32.6501 37.3524 32.8427 35.5148 32.8427 32.477C32.8427 29.4392 32.6501 27.5804 32.2649 26.9007C32.0508 26.5395 31.7191 26.1359 31.2696 25.6898C30.7988 25.2437 30.4242 25.0206 30.146 25.0206C29.8891 25.0206 29.5253 25.2437 29.0544 25.6898C28.5836 26.1359 28.2518 26.5395 28.0592 26.9007C27.6525 27.5592 27.4492 29.3968 27.4492 32.4133C27.4492 35.4511 27.6525 37.3099 28.0592 37.9897C28.2518 38.3508 28.5836 38.7545 29.0544 39.2006ZM34.2232 42.8332C32.3826 44.2777 31.0235 45 30.146 45C29.2899 45 27.9415 44.2777 26.1008 42.8332C24.2602 41.3674 23.1258 40.2734 22.6978 39.5511C22.0771 38.4677 21.7667 36.0884 21.7667 32.4133C21.7667 28.7595 22.0771 26.4014 22.6978 25.3393C23.1258 24.617 24.2602 23.5336 26.1008 22.089C27.9415 20.6232 29.2899 19.8903 30.146 19.8903C31.0235 19.8903 32.3826 20.6232 34.2232 22.089C36.0639 23.5336 37.1982 24.617 37.6263 25.3393C38.247 26.4014 38.5573 28.7595 38.5573 32.4133C38.5573 36.0884 38.247 38.4677 37.6263 39.5511C37.1982 40.2734 36.0639 41.3674 34.2232 42.8332ZM58.6867 27.2512V44.4583H52.7795V27.8885C52.7795 27.3786 52.5013 26.8475 51.9448 26.2952C51.4097 25.7429 50.9603 25.4667 50.5964 25.4667C50.2112 25.4667 49.6012 25.8279 48.7665 26.5501V44.4583H42.8272V29.0675C42.8272 27.5592 42.6453 26.3908 42.2814 25.5623C41.939 24.7338 41.3718 24.0009 40.5799 23.3636L45.5239 19.9222C46.5085 20.7719 47.2469 21.6217 47.7392 22.4714C49.6868 20.7507 51.0352 19.8903 51.7843 19.8903C52.2338 19.8903 52.9615 20.2196 53.9674 20.8782C54.9947 21.5367 55.9258 22.3227 56.7605 23.2362C59.1362 21.0056 60.7842 19.8903 61.7045 19.8903C62.6035 19.8903 63.9732 20.7188 65.8139 22.3758C67.6545 24.0116 68.5749 25.6367 68.5749 27.2512V35.8547C68.5749 37.3843 68.7568 38.5633 69.1206 39.3918C69.4845 40.2202 70.0517 40.9425 70.8222 41.5586L65.8781 45C63.7378 43.3005 62.6677 40.8894 62.6677 37.7666V27.8885C62.6677 27.3786 62.3894 26.8475 61.833 26.2952C61.2979 25.7429 60.8591 25.4667 60.5167 25.4667C60.1742 25.4667 59.5428 25.8385 58.6225 26.582C58.6653 26.8794 58.6867 27.1025 58.6867 27.2512ZM78.8483 44.4583H74.4179V20.1134C74.4179 18.6051 74.2466 17.4474 73.9042 16.6401C73.5403 15.8329 72.9625 15.1 72.1705 14.4414L77.1146 11C79.2763 12.6995 80.3572 15.1 80.3572 18.2015V22.2484C82.155 20.6764 83.4499 19.8903 84.2418 19.8903C85.0337 19.8903 86.2536 20.687 87.9017 22.2802C89.5283 23.8735 90.4593 25.0419 90.6948 25.7854C91.0372 26.5289 91.2084 28.7488 91.2084 32.4452C91.2084 36.1415 91.0372 38.3614 90.6948 39.105C90.4593 39.8485 89.5283 41.0169 87.9017 42.6101C86.2536 44.2034 85.0765 45 84.3702 45C83.3215 45 81.6413 43.9166 79.3298 41.7498L78.8483 44.4583ZM80.5819 37.671C80.7959 38.0322 81.224 38.4146 81.8661 38.8182C82.5081 39.2218 83.0004 39.4236 83.3429 39.4236C83.6639 39.4236 84.017 39.2324 84.4023 38.85C84.7661 38.4677 85.0337 38.064 85.2049 37.6392C85.3975 37.2355 85.4938 35.5042 85.4938 32.4452C85.4938 29.4074 85.3975 27.6867 85.2049 27.283C85.0337 26.8794 84.7661 26.4758 84.4023 26.0722C84.017 25.6685 83.6639 25.4667 83.3429 25.4667C83.0432 25.4667 82.5724 25.6685 81.9303 26.0722C81.2668 26.4758 80.8387 26.8263 80.6461 27.1237C80.3893 27.6336 80.2608 29.418 80.2608 32.477C80.2608 35.5573 80.3679 37.2887 80.5819 37.671ZM106.554 20.4321H110.985V38.7226C111.156 39.7635 111.852 40.6876 113.071 41.4948L109.026 44.9044C108.641 44.6495 108.17 44.1821 107.614 43.5023C107.036 42.8013 106.554 42.1003 106.169 41.3993C103.686 43.7997 101.942 45 100.936 45C100.23 45 99.074 44.214 97.4688 42.642C95.8635 41.07 94.8683 39.7954 94.4831 38.8182C94.0978 37.8197 93.9052 35.6954 93.9052 32.4452C93.9052 29.1949 94.0978 27.0812 94.4831 26.104C94.8683 25.1056 95.8635 23.8204 97.4688 22.2484C99.074 20.6764 100.23 19.8903 100.936 19.8903C101.985 19.8903 103.686 20.9631 106.041 23.1087L106.554 20.4321ZM104.724 27.2193C104.51 26.8582 104.082 26.4758 103.44 26.0722C102.798 25.6685 102.317 25.4667 101.995 25.4667C101.653 25.4667 101.3 25.6579 100.936 26.0403C100.551 26.4227 100.305 26.7838 100.198 27.1237C99.791 27.6548 99.5877 29.4286 99.5877 32.4452C99.5877 35.4617 99.791 37.2355 100.198 37.7666C100.305 38.064 100.551 38.4146 100.936 38.8182C101.3 39.2218 101.653 39.4236 101.995 39.4236C102.317 39.4236 102.798 39.2218 103.44 38.8182C104.082 38.4146 104.5 38.0534 104.692 37.7348C104.885 37.4161 105.003 35.6742 105.045 32.5089C105.045 29.3649 104.938 27.6017 104.724 27.2193ZM127.647 25.1162H122.606V34.9625C122.606 36.3646 123.088 37.6498 124.051 38.8182C125.014 39.9653 126.331 40.8788 128 41.5586L123.056 45C121.258 44.1715 119.749 43.0244 118.529 41.5586C117.288 40.0715 116.667 38.5102 116.667 36.8744V25.1162H114.42V21.7704L116.667 21.2287C116.624 19.7629 116.453 18.6157 116.153 17.7873C115.854 16.9375 115.276 16.109 114.42 15.3018L119.364 11.8604C121.526 13.5598 122.606 15.9709 122.606 19.0937V20.4321H127.647V25.1162Z" fill="white"/>
<path d="M146.319 10.1059L149.47 5.95012C149.664 5.69137 149.805 5.39679 149.885 5.08318C149.966 4.76957 149.984 4.44308 149.939 4.12234C149.894 3.80161 149.787 3.49292 149.623 3.2139C149.46 2.93488 149.243 2.69098 148.986 2.49614C148.729 2.30131 148.436 2.15934 148.125 2.07835C147.813 1.99736 147.488 1.97893 147.169 2.02412C146.851 2.06931 146.544 2.17723 146.267 2.34172C145.989 2.5062 145.747 2.72404 145.553 2.98278L141.837 7.88241C142.011 7.93739 142.179 8.00594 142.341 8.08942L146.319 10.1059ZM148.59 11.2577C148.968 11.451 149.304 11.7179 149.578 12.0429C149.853 12.3678 150.06 12.7443 150.189 13.1506C150.29 13.4662 150.342 13.7893 150.346 14.1116L155.016 7.90888C155.407 7.38633 155.576 6.72886 155.485 6.08111C155.394 5.43337 155.052 4.8484 154.532 4.45491C154.013 4.06142 153.359 3.89163 152.716 3.98289C152.072 4.07415 151.49 4.41899 151.099 4.94155L146.963 10.4344L148.59 11.2577ZM154.775 9.43056L149.692 16.1261C149.418 16.4921 149.25 16.9279 149.208 17.3844C149.167 17.8409 149.252 18.3001 149.455 18.7104C149.659 19.1207 149.972 19.4659 150.359 19.7071C150.747 19.9484 151.193 20.0762 151.649 20.0762C152.393 20.0762 153.128 19.7368 153.609 19.0934L158.692 12.3986C159.083 11.876 159.252 11.2185 159.161 10.5707C159.071 9.92289 158.728 9.33784 158.209 8.94426C157.689 8.55068 157.036 8.3808 156.392 8.472C155.748 8.5632 155.166 8.908 154.775 9.43056Z" fill="url(#paint0_linear_1759_31)"/>
<path d="M159.011 25.1095C159.556 23.8933 159.725 22.4897 159.76 21.4193L159.465 21.8164C159.177 22.2047 158.802 22.5196 158.371 22.7358C157.94 22.952 157.464 23.0634 156.983 23.0612C156.309 23.0628 155.653 22.842 155.116 22.4327C154.772 22.173 154.486 21.844 154.275 21.4668C154.065 21.0896 153.935 20.6723 153.894 20.2418C153.26 20.425 152.583 20.6551 151.871 20.9476C151.135 21.2483 150.424 21.608 149.745 22.0234L149.675 21.9983C149.675 21.9983 149.675 20.1848 145.8 17.4082C144.412 16.4132 141.076 15.0747 141.076 15.0747L141.444 14.1666L145.945 16.4485C146.552 16.7616 147.258 16.8193 147.907 16.6089C148.556 16.3985 149.096 15.9372 149.407 15.3265C149.719 14.7159 149.776 14.0058 149.567 13.3526C149.358 12.6994 148.899 12.1565 148.292 11.8434L141.408 8.36633C141.04 8.17661 140.633 8.07773 140.22 8.07788C139.281 8.07788 138.375 8.58692 137.945 9.48893C137.617 10.1771 135.522 14.4537 135.349 16.2808C135.302 16.7776 135.457 17.7916 135.636 18.2572C136.509 20.5302 140.436 25.7638 141.858 27.6187L133 46.3417H143.415L134.674 63L159.111 38.8854H148.945L155.959 30.018C156.941 28.8655 158.046 27.2624 159.011 25.1095Z" fill="url(#paint1_linear_1759_31)"/>
<path d="M161.333 14.1219C160.909 13.7995 160.391 13.6252 159.86 13.6258C159.116 13.6258 158.382 13.9652 157.9 14.6093L155.026 18.4535C154.655 18.9773 154.502 19.6261 154.6 20.2617C154.698 20.8973 155.038 21.4694 155.549 21.8563C156.059 22.2431 156.7 22.4142 157.334 22.333C157.968 22.2518 158.546 21.9247 158.944 21.4215L161.817 17.5766C162.208 17.0539 162.377 16.3963 162.286 15.7485C162.195 15.1006 161.853 14.5156 161.333 14.1219Z" fill="url(#paint2_linear_1759_31)"/>
<path d="M187.293 44.4583H181.219V21.7704C181.219 21.2605 181.124 20.8357 180.936 20.4958C180.747 20.1559 180.432 19.7629 179.991 19.3168C179.551 18.8707 179.194 18.6476 178.921 18.6476C178.334 18.6476 177.557 19.2424 176.592 20.4321C176.676 21.1756 176.718 21.9616 176.718 22.7901V44.4583H170.644V25.3711C170.644 22.8432 170.476 21.08 170.14 20.0815C169.804 19.0619 169.091 17.851 168 16.4489L173.288 12.7207C174.232 13.4005 174.903 14.2184 175.302 15.1743C177.421 13.5386 178.921 12.7207 179.803 12.7207C180.684 12.7207 182.341 13.8572 184.775 16.1303C187.23 13.8572 188.951 12.7207 189.937 12.7207C190.671 12.7207 191.93 13.4961 193.714 15.0469C195.497 16.6189 196.609 17.7235 197.05 18.3608C197.491 18.9981 197.711 19.8372 197.711 20.8782V44.4583H191.605V21.7704C191.605 21.1968 191.511 20.7507 191.322 20.4321C191.112 20.1346 190.766 19.7629 190.283 19.3168C189.801 18.8707 189.371 18.6476 188.993 18.6476C188.636 18.6476 188.059 19.1362 187.262 20.1134C187.283 20.2621 187.293 20.517 187.293 20.8782V44.4583ZM208.381 39.2006C208.842 39.6467 209.199 39.8697 209.451 39.8697C209.723 39.8697 210.091 39.6467 210.552 39.2006C210.993 38.7545 211.318 38.3508 211.528 37.9897C211.906 37.3524 212.094 35.5148 212.094 32.477C212.094 29.4392 211.906 27.5804 211.528 26.9007C211.318 26.5395 210.993 26.1359 210.552 25.6898C210.091 25.2437 209.723 25.0206 209.451 25.0206C209.199 25.0206 208.842 25.2437 208.381 25.6898C207.919 26.1359 207.594 26.5395 207.405 26.9007C207.006 27.5592 206.807 29.3968 206.807 32.4133C206.807 35.4511 207.006 37.3099 207.405 37.9897C207.594 38.3508 207.919 38.7545 208.381 39.2006ZM213.448 42.8332C211.643 44.2777 210.311 45 209.451 45C208.611 45 207.289 44.2777 205.485 42.8332C203.68 41.3674 202.568 40.2734 202.149 39.5511C201.54 38.4677 201.236 36.0884 201.236 32.4133C201.236 28.7595 201.54 26.4014 202.149 25.3393C202.568 24.617 203.68 23.5336 205.485 22.089C207.289 20.6232 208.611 19.8903 209.451 19.8903C210.311 19.8903 211.643 20.6232 213.448 22.089C215.252 23.5336 216.364 24.617 216.784 25.3393C217.392 26.4014 217.697 28.7595 217.697 32.4133C217.697 36.0884 217.392 38.4677 216.784 39.5511C216.364 40.2734 215.252 41.3674 213.448 42.8332ZM220.844 25.7854C221.075 25.0419 221.988 23.8735 223.582 22.2802C225.177 20.687 226.362 19.8903 227.139 19.8903C227.894 19.8903 229.195 20.6976 231.041 22.3121V20.1134C231.041 18.6051 230.874 17.4474 230.538 16.6401C230.181 15.8329 229.615 15.1 228.838 14.4414L233.685 11C235.804 12.6995 236.864 15.1 236.864 18.2015V44.4583H232.363L231.86 41.8454C229.699 43.9485 228.093 45 227.044 45C226.331 45 225.177 44.2034 223.582 42.6101C221.988 41.0169 221.075 39.8485 220.844 39.105C220.508 38.3614 220.34 36.1415 220.34 32.4452C220.34 28.7488 220.508 26.5289 220.844 25.7854ZM230.758 27.2193C230.548 26.8582 230.129 26.4758 229.499 26.0722C228.87 25.6685 228.387 25.4667 228.051 25.4667C227.737 25.4667 227.391 25.6579 227.013 26.0403C226.656 26.4227 226.383 26.8263 226.195 27.2512C226.027 27.676 225.943 29.4074 225.943 32.4452C225.943 35.5042 226.027 37.2355 226.195 37.6392C226.383 38.0216 226.656 38.4146 227.013 38.8182C227.391 39.2218 227.726 39.4236 228.02 39.4236C228.335 39.4236 228.807 39.2218 229.436 38.8182C230.066 38.4146 230.485 38.064 230.695 37.7666C230.884 37.363 231 36.1628 231.041 34.1659V32.5089C231.041 29.3649 230.947 27.6017 230.758 27.2193ZM256 32.3814V33.9747H245.33C245.33 35.7591 245.551 37.1718 245.991 38.2127C246.138 38.5739 246.401 38.9456 246.778 39.328C247.156 39.6892 247.555 39.8697 247.974 39.8697C248.394 39.8697 248.908 39.5192 249.516 38.8182C250.125 38.0959 250.608 37.2249 250.964 36.2052L255.496 39.4873C254.72 40.9744 253.514 42.2596 251.877 43.343C250.24 44.4477 248.929 45 247.943 45C246.936 45 245.488 44.214 243.599 42.642C241.69 41.07 240.536 39.8379 240.137 38.9456C239.718 38.0747 239.508 35.9078 239.508 32.4452C239.508 28.9825 239.718 26.8157 240.137 25.9447C240.536 25.0525 241.69 23.8204 243.599 22.2484C245.488 20.6764 246.873 19.8903 247.754 19.8903C248.635 19.8903 250.02 20.6764 251.908 22.2484C253.818 23.8204 254.972 25.0525 255.371 25.9447C255.79 26.8157 256 28.9613 256 32.3814ZM249.894 26.7732C249.663 26.3696 249.328 25.9766 248.887 25.5942C248.425 25.2118 247.995 25.0206 247.597 25.0206C247.198 25.0206 246.747 25.4136 246.243 26.1996C245.761 26.9856 245.456 28.1646 245.33 29.7366H250.366C250.261 28.1646 250.104 27.1768 249.894 26.7732Z" fill="white"/>
<defs>
<linearGradient id="paint0_linear_1759_31" x1="137.831" y1="13.4623" x2="154.302" y2="50.1274" gradientUnits="userSpaceOnUse">
<stop stop-color="#EA1F59"/>
<stop offset="0.0001" stop-color="#EA1F59"/>
<stop offset="1" stop-color="#FA9169"/>
</linearGradient>
<linearGradient id="paint1_linear_1759_31" x1="127.269" y1="15.2134" x2="153.764" y2="47.2088" gradientUnits="userSpaceOnUse">
<stop stop-color="#EA1F59"/>
<stop offset="1" stop-color="#FA9169"/>
</linearGradient>
<linearGradient id="paint2_linear_1759_31" x1="144.489" y1="29.4134" x2="160.092" y2="37.0839" gradientUnits="userSpaceOnUse">
<stop stop-color="#EA1F59"/>
<stop offset="1" stop-color="#FA9169"/>
</linearGradient>
</defs>
</svg>
